FFmpeg version SVN-r25716, Copyright (c) 2000-2010 the FFmpeg developers  built on Nov 10 2010 12:23:18 with gcc 4.1.2 20080704 (Red Hat 4.1.2-48)  configuration: --enable-libmp3lame --enable-shared --disable-mmx --arch=x86_64  libavutil     50.33. 0 / 50.33. 0  libavcore      0.12. 1 /  0.12. 1  libavcodec    52.94. 4 / 52.94. 4  libavformat   52.84. 0 / 52.84. 0  libavdevice   52. 2. 2 / 52. 2. 2  libavfilter    1.59. 0 /  1.59. 0  libswscale     0.12. 0 /  0.12. 0Seems stream 0 codec frame rate differs from container frame rate: 600.00 (600/1) -> 15.00 (15/1)Input #0, mov,mp4,m4a,3gp,3g2,mj2, from '/RAID10/data/converted_video_files/42164.mov':  Metadata:    major_brand     : qt      minor_version   : 537199360    compatible_brands: qt    Duration: 00:00:11.93, start: 0.000000, bitrate: 11888 kb/s    Stream #0.0(eng): Video: mjpeg, yuvj420p, 1388x1040 [PAR 1:1 DAR 347:260], 11886 kb/s, 15 fps, 15 tbr, 600 tbn, 600 tbc[buffer @ 0x12698370] w:1388 h:1040 pixfmt:yuvj420p[ffsink @ 0x126994f0] auto-inserting filter 'auto-inserted scaler 0' between the filter 'src' and the filter 'out'[scale @ 0x126d2980] w:1388 h:1040 fmt:yuvj420p -> w:1388 h:1040 fmt:yuv420p flags:0x4Output #0, flv, to '/RAID10/data/converted_video_files/42164.flv':  Metadata:    encoder         : Lavf52.84.0    Stream #0.0(eng): Video: flv, yuv420p, 1388x1040 [PAR 1:1 DAR 347:260], q=2-31, 600 kb/s, 1k tbn, 24 tbcStream mapping:  Stream #0.0 -> #0.0Press [q] to stop encodingframe=    6 fps=  0 q=6.8 size=     413kB time=0.38 bitrate=9032.8kbits/s    frame=   15 fps= 12 q=30.2 size=     501kB time=0.96 bitrate=4281.7kbits/s    frame=   23 fps= 13 q=31.0 size=     553kB time=1.50 bitrate=3020.8kbits/s    frame=   32 fps= 14 q=31.0 size=     629kB time=2.12 bitrate=2425.5kbits/s    frame=   41 fps= 15 q=31.0 size=     689kB time=2.71 bitrate=2082.9kbits/s    frame=   49 fps= 15 q=24.8 size=     757kB time=3.25 bitrate=1909.0kbits/s    frame=   57 fps= 15 q=31.0 size=     793kB time=3.75 bitrate=1733.0kbits/s    frame=   66 fps= 15 q=31.0 size=     863kB time=4.38 bitrate=1616.2kbits/s    frame=   75 fps= 15 q=31.0 size=     920kB time=4.96 bitrate=1520.0kbits/s    frame=   84 fps= 16 q=31.0 size=     956kB time=5.58 bitrate=1402.4kbits/s    frame=   93 fps= 16 q=31.0 size=    1042kB time=6.17 bitrate=1383.7kbits/s    frame=  102 fps= 16 q=31.0 size=    1100kB time=6.75 bitrate=1334.7kbits/s    frame=  111 fps= 16 q=31.0 size=    1155kB time=7.38 bitrate=1283.0kbits/s    frame=  119 fps= 16 q=31.0 size=    1171kB time=7.92 bitrate=1211.4kbits/s    frame=  128 fps= 16 q=31.0 size=    1242kB time=8.50 bitrate=1196.8kbits/s    frame=  137 fps= 16 q=31.0 size=    1299kB time=9.12 bitrate=1166.4kbits/s    frame=  146 fps= 16 q=31.0 size=    1354kB time=9.71 bitrate=1142.1kbits/s    frame=  154 fps= 16 q=31.0 size=    1369kB time=10.25 bitrate=1094.4kbits/s    frame=  162 fps= 16 q=31.0 size=    1422kB time=10.75 bitrate=1083.5kbits/s    frame=  171 fps= 16 q=31.0 size=    1486kB time=11.38 bitrate=1070.4kbits/s    frame=  179 fps= 16 q=31.0 size=    1529kB time=11.92 bitrate=1050.9kbits/s    frame=  179 fps= 16 q=31.0 Lsize=    1529kB time=11.92 bitrate=1050.9kbits/s    video:1526kB audio:0kB global headers:0kB muxing overhead 0.196774%